inDegrees=no
num_controls=7
num_derivatives=13
num_iterations=78
num_multipliers=7
num_parameters=0
num_slacks=7
num_states=26
objective=0.334209
objective_accelerations=0.036539
objective_balance=0.001325
objective_effort=0.026862
objective_height=0.268012
objective_ligament=0.001470
solver_duration=1027.432406
status=Solve_Succeeded
success=true
DataType=double
version=3
OpenSimVersion=4.5
endheader
time	/jointset/ground_pelvis/pelvis_tilt/value	/jointset/ground_pelvis/pelvis_tx/value	/jointset/ground_pelvis/pelvis_ty/value	/jointset/hip_r/hip_flexion_r/value	/jointset/hip_r/hip_adduction_r/value	/jointset/hip_r/hip_rotation_r/value	/jointset/back/lumbar_extension/value	/jointset/patellofemoral_r/patellar_flexion_r/value	/jointset/knee_r/knee_flexion_r/value	/jointset/knee_r/knee_adduction_r/value	/jointset/knee_r/knee_rotation_r/value	/jointset/ankle_r/ankle_angle_r/value	/jointset/subtalar_r/subtalar_angle_r/value	/jointset/ground_pelvis/pelvis_tilt/speed	/jointset/ground_pelvis/pelvis_tx/speed	/jointset/ground_pelvis/pelvis_ty/speed	/jointset/hip_r/hip_flexion_r/speed	/jointset/hip_r/hip_adduction_r/speed	/jointset/hip_r/hip_rotation_r/speed	/jointset/back/lumbar_extension/speed	/jointset/patellofemoral_r/patellar_flexion_r/speed	/jointset/knee_r/knee_flexion_r/speed	/jointset/knee_r/knee_adduction_r/speed	/jointset/knee_r/knee_rotation_r/speed	/jointset/ankle_r/ankle_angle_r/speed	/jointset/subtalar_r/subtalar_angle_r/speed	/forceset/tau_hip_flexion_r	/forceset/tau_hip_adduction_r	/forceset/tau_hip_rotation_r	/forceset/tau_knee_flexion_r	/forceset/tau_ankle_angle_r	/forceset/tau_subtalar_angle_r	/forceset/tau_lumbar_extension	lambda_cid13_p0	lambda_cid14_p0	lambda_cid14_p1	lambda_cid14_p2	lambda_cid14_p3	lambda_cid14_p4	lambda_cid14_p5	/jointset/ground_pelvis/pelvis_tilt/accel	/jointset/ground_pelvis/pelvis_tx/accel	/jointset/ground_pelvis/pelvis_ty/accel	/jointset/hip_r/hip_flexion_r/accel	/jointset/hip_r/hip_adduction_r/accel	/jointset/hip_r/hip_rotation_r/accel	/jointset/back/lumbar_extension/accel	/jointset/patellofemoral_r/patellar_flexion_r/accel	/jointset/knee_r/knee_flexion_r/accel	/jointset/knee_r/knee_adduction_r/accel	/jointset/knee_r/knee_rotation_r/accel	/jointset/ankle_r/ankle_angle_r/accel	/jointset/subtalar_r/subtalar_angle_r/accel	gamma_cid13_p0	gamma_cid14_p0	gamma_cid14_p1	gamma_cid14_p2	gamma_cid14_p3	gamma_cid14_p4	gamma_cid14_p5
0.5	-0.1676905879383875	0.02982686619600558	0.8069107375104244	0.9115806400139083	-0.2237517495437278	-0.1240403668507182	-0.6478318844292906	0.9455537654572485	0.9455537654572495	-0.04496657595404128	0.1744562901472311	0.2928907651714336	0.1366230191057318	-0.4275405733394348	-0.2038724642640296	-0.4988750851777941	1.920650214800325	-0.008586677511470825	0.1763947723345927	-0.7347092334880582	1.910118496625966	1.910118496625976	-0.4595068416394965	-0.0007281607080559554	0.5282861301669497	0.1943708418414167	-0.2130241910208162	0.02653748760584657	0.01509344835791254	-0.2653097246971599	-0.0173283858507843	-0.005927236240718772	0.2486273036874833	-8.904041706176521	-48.34473437937196	-10.18889143970073	1.075279938321988	-2.862144295750205	-640.3203442679171	49.80409865010709	0.3778009241396967	0.5894833472852166	-0.4256840668236156	-1.318625957686145	-0.2528449495066016	-0.605827216358573	1.818441004432244	-1.31363590267004	-1.313635902670041	0.4780548274075367	-0.01424682093815292	-0.5414867836814754	-0.3963545021206893	-1.366161802693935e-07	-1.37558592204301e-07	5.561734941820876e-07	-1.452998203179629e-06	2.63235630965016e-08	-2.578281056287664e-07	4.342133592913401e-07
0.51	-0.17194617151585	0.02781780312730363	0.8019018584376063	0.9307181984521857	-0.2238509168022625	-0.1223058001661844	-0.6550875696162122	0.9645865916824048	0.9645865916824105	-0.04953526492002365	0.1744490441810233	0.2981454559604025	0.1385452834463274	-0.4235078441743873	-0.1979233577011078	-0.5027890282960047	1.906606987667265	-0.01122977928191544	0.1705181656990961	-0.7163474483239798	1.896189547705111	1.896189547705114	-0.4542163652406455	-0.000720447153927536	0.5225761066838015	0.1900599399095459	-0.219803435485031	0.02779728041516806	0.01509515865071778	-0.2697191369687483	-0.01855704278391662	-0.005478775579045391	0.2547856674155443	-7.94391241430248	-49.05178009013175	-10.30273431703157	1.304528128559258	-2.817559699974793	-645.3072998347068	49.87512439905787	0.4262400643986283	0.6001474235719571	-0.3575454484674807	-1.485362355949825	-0.2676674031970792	-0.5788771457563449	1.857100608239293	-1.471076426283029	-1.47107642628411	0.5568091597863464	0.008101762107114604	-0.5971734189983452	-0.4518490704003112	-1.420189484668061e-07	-1.436673601803744e-07	5.429248242930723e-07	-1.493821097853223e-06	2.892379745041302e-08	-2.483813257332151e-07	3.839887611654025e-07
0.52	-0.1761593815713198	0.02586873574678615	0.7968571807307764	0.949707686366166	-0.2239760400009783	-0.1206300594997278	-0.6621572262843243	0.9834724180104546	0.9834724180104647	-0.054050596099285	0.1744418396140606	0.3033407638568665	0.1404237605612684	-0.4190658689408838	-0.1918733266271343	-0.506034811980123	1.891036109940848	-0.01377786554770672	0.1646295687191534	-0.6975035297261546	1.880718517204665	1.88071851720466	-0.4488352842952942	-0.0007198808590481105	0.5164095516659791	0.1856133967104736	-0.2265826799492458	0.02905707322448972	0.01509686894352286	-0.2741285492403396	-0.01978569971704891	-0.005030314917371694	0.2609440311436344	-7.040952886398316	-49.75591765023793	-10.41125193089562	1.52742584074973	-2.808189817527498	-650.2613171324142	50.00394479077796	0.4596501378308936	0.6096682494955448	-0.2920521800051353	-1.624156076357609	-0.2338418485759312	-0.6082252852478143	1.914867691181608	-1.622052218588177	-1.622052218588472	0.4961757367076128	-0.01567627278795158	-0.6327930906163024	-0.4234827555609856	-1.454359798254465e-07	-1.547301079569638e-07	4.324333832831347e-07	-1.580214448361251e-06	4.34532663912981e-08	-2.332145387008316e-07	2.605055100533108e-07
0.53	-0.1803261959393166	0.02398058328144061	0.7917834168709856	0.9685340228535436	-0.2241259025566724	-0.1190142991364267	-0.66903609529676	1.002195821674502	1.002195821674514	-0.05851294663750953	0.1744349267734543	0.3084722074966804	0.1422575265436348	-0.4142320764443703	-0.1857489106392397	-0.5086025820169251	1.873987885509991	-0.01615168642516289	0.1583741091320938	-0.6781991079071135	1.863694943472594	1.863694943472592	-0.4437859019278366	-0.0006183622404921929	0.5098104857001973	0.1811636329889435	-0.2333807689011931	0.03035500367416729	0.01510616815409047	-0.278483894609719	-0.02135990843990151	-0.004682751456601513	0.2670599298750193	-6.196075875616464	-50.59309984984151	-10.58887479067886	1.763615392026692	-2.614585828776496	-655.3427948735683	50.03138186454001	0.5049652564446785	0.6150768608272218	-0.2218777709789532	-1.781673506631158	-0.232916652571944	-0.656712794662166	1.948904155342646	-1.782571324189089	-1.782571324188427	0.4867154510692218	0.02940580453567298	-0.6837873455321875	-0.452281984027929	-1.467498392819017e-07	-1.623906193397389e-07	3.39268069610994e-07	-1.661902251987033e-06	5.467331625247424e-08	-2.22420086470871e-07	1.644514780770568e-07
0.54	-0.1844427280921715	0.02215392469345221	0.7866874276397344	0.9871825735205765	-0.2242982562101893	-0.1174655946688418	-0.6757197851453896	1.020740977326494	1.020740977326509	-0.06292932415919862	0.1744302970941052	0.3135355956776428	0.1440474831280701	-0.4090094259125329	-0.1795745511557071	-0.5104798862721752	1.855478945871879	-0.01827608511227828	0.1512183895759491	-0.6584676969649733	1.845068914793619	1.845068914793621	-0.4396406809882034	-0.0002632486076255599	0.5027984598956782	0.1768515171242572	-0.2401788578531406	0.03165293412384439	0.01511546736466001	-0.282839239979098	-0.02293411716275426	-0.004335187995832293	0.273175828606404	-5.409712817640868	-51.42776129025089	-10.76139822097716	1.993669677424637	-2.456705360344045	-660.3957645256661	50.11791666759775	0.5374217448956532	0.6196569486231288	-0.1539590236947295	-1.916299117808596	-0.1839574105077742	-0.7882772790648024	2.000265515801442	-1.942543207969222	-1.94254320796922	0.3153434511427504	0.03504273007202536	-0.7153850583452545	-0.3959531841922141	-1.457367851444502e-07	-1.662869542868043e-07	2.652720883125861e-07	-1.738383918636713e-06	6.223188117439789e-08	-2.164631110435911e-07	9.874466727236829e-08
0.55	-0.1885051357346641	0.0203892199673634	0.7815761271863892	1.005638829253764	-0.224491062790636	-0.1159902391060423	-0.6822041411134944	1.039092344341498	1.039092344341492	-0.06730586878207974	0.1744295603638757	0.3185267885650905	0.1457942172336605	-0.4034062731442648	-0.1733616218522825	-0.5116625798872025	1.835529018331133	-0.02028033679614662	0.1439461758215735	-0.6383498453969533	1.824978017457735	1.824978017457735	-0.435556011709284	8.122434699192539e-05	0.4953711764773976	0.1724532192068594	-0.2467665298712096	0.03265556803419517	0.01526818448854472	-0.287458327825963	-0.02432392536290045	-0.004083108172839288	0.2790864153459553	-4.681815060115346	-52.21575480670992	-10.97295343513585	2.236497455410025	-2.27484017502211	-665.474211041688	50.20026326576382	0.5816164386015044	0.6228400236146426	-0.08282349673050018	-2.070841748721193	-0.208168771904841	-0.6829258588216265	2.02559266615357	-2.0763045719858	-2.076304571986259	0.4719070243688727	0.02860378317524893	-0.7667566993961067	-0.4682566328338877	-1.181173347796364e-07	-1.111484061468867e-07	4.567601192594983e-07	-1.260969312597819e-06	9.755350601748534e-09	-1.796536396784775e-07	2.786814416568748e-07
0.5600000000000001	-0.1925095409703122	0.01868679035479134	0.7764565200036291	1.023888285276242	-0.224703813832837	-0.1145848521678263	-0.6884857090281485	1.057236014068026	1.057236014067999	-0.07163819104055119	0.174431159204196	0.3234416372751902	0.1474956706526127	-0.3974089445436334	-0.1671195284523571	-0.5121412321551803	1.814119003729841	-0.02226497746315313	0.1372246646592903	-0.617910086274882	1.803529457098338	1.803529457098335	-0.430796208106268	0.0002038655023549481	0.4875296244260512	0.1677953797966487	-0.2533542018892787	0.03365820194454532	0.01542090161243396	-0.2920774156728353	-0.02571373356304685	-0.003831028349847599	0.2849970020855997	-4.011856968141635	-53.00172222038741	-11.17651835682192	2.469330133315363	-2.131460256895144	-670.5376933317857	50.35258497105131	0.6162569113682955	0.6254897679233009	-0.01315075428480132	-2.208316529917961	-0.1800352071354083	-0.6781367606463424	2.064647026611689	-2.214075812671933	-2.214075812671766	0.4503703159620702	-0.009323629778866596	-0.7982387849584039	-0.4478614827547861	-5.857020894198917e-08	1.48320016974083e-08	9.668289649007842e-07	-1.188791793326572e-07	-1.147632945643861e-07	-1.058211731879646e-07	7.533905182684057e-07
0.5700000000000001	-0.1964521639070114	0.01704686110099398	0.771335649135962	1.041916610267907	-0.2249358569198251	-0.1132464039118854	-0.6945613080237462	1.075158244279126	1.07515824427912	-0.07592233082196179	0.1744336699920991	0.3282761611351219	0.1491500578571665	-0.3910556410965446	-0.160866649450757	-0.5119133163872326	1.791309790171966	-0.02415543849303171	0.1306545935315618	-0.5971712904355827	1.780708332960487	1.780708332960486	-0.4258025144731173	0.0002496430462646101	0.4793056034911879	0.1630095030295279	-0.2597154099000197	0.03455554552250575	0.01557384288926778	-0.2968457313215916	-0.02704768157194396	-0.003641259323898955	0.2906745891142665	-3.399091416274838	-53.77795327707472	-11.40808278669891	2.709643711265458	-1.918027313161309	-675.5905921533277	50.46192436889223	0.6538784511075406	0.6251008551146852	0.05869367951752199	-2.352642086029494	-0.1951933624135854	-0.6180375727981894	2.084259223948349	-2.347363561115117	-2.347363561115045	0.5584063574748639	0.004381222767150769	-0.8449520353357374	-0.5045751725447341	-2.486960387872343e-08	8.675475494648397e-08	1.238152014297055e-06	5.26396984945672e-07	-1.853901434680534e-07	-5.754180474178349e-08	1.00983142219552e-06
0.58	-0.200329451531294	0.01546944341498	0.7662206436134109	1.059709759460531	-0.2251871329794119	-0.1119679754240142	-0.7004283663886789	1.092846016679493	1.092846016679507	-0.08014962617294413	0.1744352091106995	0.3330263511281896	0.1507544614142783	-0.384341882060321	-0.1546172148956819	-0.510968163131966	1.7670838439218	-0.02611157198289034	0.1252207110453497	-0.5762019601419129	1.756637894951695	1.756637894951695	-0.4194273220206349	9.531641783718306e-06	0.4706628510532668	0.1577986503082469	-0.2660766179107608	0.03545288910046623	0.01572678416610096	-0.3016140469703479	-0.02838162958084106	-0.003451490297950182	0.2963521761429332	-2.841998379506542	-54.55430794405392	-11.63441486533208	2.943124567435698	-1.730293599369552	-680.6595417867776	50.58734816349365	0.6883480291952576	0.6248008786182978	0.1302967431789987	-2.491663068376363	-0.1931696991314177	-0.4508990323430817	2.110753917485795	-2.463938586860224	-2.463938586860226	0.7266700798283989	-0.06650141946110627	-0.8819850855339955	-0.5328566735868391	-2.482958401000002e-08	8.827684174597392e-08	1.19855030579285e-06	5.246596082179143e-07	-1.858323274717655e-07	-4.254088956263798e-08	9.820161012313111e-07
